<svg xmlns="http://www.w3.org/2000/svg" viewBox="0 0 475 126"><g transform="matrix(1.2502 0 0 1.2502 15.758 2.1849)"><path d="m46.125 8.6895c-9.983 0-18.483 6.6097-22.1 16.012h22.1z"></path><path d="m9.9473 16.898c-0.31017-0.01246-0.62669 0.0049-0.94531 0.05664-2.543 0.416-4.2676 2.8134-3.8516 5.3574 1.411 8.626 7.0863 13.828 12.027 16.795 0.111 3.407 0.57366 6.7021 1.3477 9.8301h-13.861c-2.576 0-4.6641 2.089-4.6641 4.666s2.0881 4.666 4.6641 4.666h17.322c1.311 2.577 2.8565 4.956 4.6035 7.084-6.1 4.571-11.813 12.547-14.584 16.744-1.42 2.148-0.83064 5.0419 1.3184 6.4629 0.792 0.523 1.6864 0.77344 2.5684 0.77344 1.514 0 2.9985-0.7348 3.8965-2.0918 4.624-6.99 10.586-13.597 13.746-15.473 3.796 2.601 8.074 4.2618 12.623 4.7598v-46.025h-25.148c-2.915-1.974-5.8924-5.0593-6.6504-9.6973-0.364-2.2242-2.2409-3.821-4.4121-3.9082z" fill="#f67909"></path></g><g transform="scale(.98599 1.0142)" stroke-width="3.1533" style="font-feature-settings:normal;font-variant-caps:normal;font-variant-ligatures:normal;font-variant-numeric:normal" aria-label="openbugbounty"><path d="m112 62.445q0 3.0259-0.63704 5.7333-0.58395 2.6543-2.5482 4.6716-1.3802 1.3802-3.2383 2.1765-1.858 0.7963-4.2469 0.7963-2.3889 0-4.2469-0.7963t-3.2383-2.1765q-1.0086-1.0086-1.6457-2.1765-0.58395-1.221-0.95555-2.4951-0.31852-1.3272-0.47778-2.7605-0.10617-1.4333-0.10617-2.9728 0-3.0259 0.58395-5.6802 0.58395-2.7074 2.6012-4.7247 1.3802-1.3802 3.2383-2.1765 1.858-0.7963 4.2469-0.7963 2.3889 0 4.2469 0.7963 1.858 0.7963 3.2383 2.1765 2.0173 2.0173 2.6012 4.7247 0.58395 2.6543 0.58395 5.6802zm-3.8222 0q0-2.2296-0.31852-4.4062-0.31852-2.2296-1.7518-3.663-1.9111-1.9111-4.7778-1.9111-2.8136 0-4.7247 1.9111-1.4333 1.4333-1.8049 3.663-0.31852 2.1765-0.31852 4.4062 0 1.1148 0.05309 2.2296t0.26543 2.1765q0.21234 1.0617 0.63704 2.0173 0.42469 0.90247 1.1679 1.6457 1.9111 1.9111 4.7247 1.9111 2.8667 0 4.7778-1.9111 1.4333-1.4864 1.7518-3.663 0.31852-2.1765 0.31852-4.4062z"></path><path d="m140.89 62.445q0 3.1852-0.63704 6.158-0.58395 2.9197-2.5481 4.937-1.0617 1.0617-2.7074 1.6988-1.6457 0.58395-3.663 0.58395-2.1765 0-3.9815-0.69012-1.7518-0.69012-3.3975-2.7074v14.758h-3.8222v-37.797h3.8222v3.079q1.6457-2.0173 3.3975-2.7074 1.7518-0.69012 3.9815-0.69012 2.0173 0 3.663 0.63704 1.6457 0.58395 2.7074 1.6457 0.95555 0.95556 1.5926 2.2296 0.63703 1.2741 0.95555 2.7074 0.37161 1.4333 0.47778 3.0259 0.15926 1.5395 0.15926 3.1321zm-3.8222 0q0-1.9111-0.21234-3.716-0.21235-1.8049-0.90247-3.1852t-2.0173-2.2296q-1.2741-0.84938-3.3975-0.84938-2.1765 0-3.4506 0.84938-1.2741 0.84938-2.0173 2.2296-0.69013 1.3802-0.90247 3.1852-0.21235 1.8049-0.21235 3.716 0 1.9111 0.21235 3.716 0.21234 1.8049 0.90247 3.1852 0.74321 1.3802 2.0173 2.2296 1.2741 0.84938 3.4506 0.84938 2.1234 0 3.3975-0.84938 1.3272-0.84938 2.0173-2.2296t0.90247-3.1852q0.21234-1.8049 0.21234-3.716z"></path><path d="m151.45 63.454q0 4.3 1.9111 6.6889 1.9642 2.3358 5.7864 2.3358 2.2827 0 3.7691-0.69012 1.5395-0.74321 3.079-2.2827l2.6012 2.2827q-1.0086 1.0086-2.0173 1.7518-0.95556 0.74321-2.1235 1.2741-1.1148 0.47778-2.442 0.74321-1.3272 0.26543-2.9728 0.26543-2.6012 0-4.7247-0.7963-2.1235-0.7963-3.6099-2.442-1.4864-1.6457-2.2827-4.1407-0.79629-2.5481-0.79629-5.9988 0-6.4234 2.8667-9.8741 2.8667-3.5037 7.8568-3.5037 5.1494 0 7.9099 3.3975 2.8136 3.3444 2.8136 9.2901v1.6988zm13.856-2.8667q-0.0531-0.7963-0.10617-1.3802-0.0531-0.58395-0.15926-1.0617-0.0531-0.47778-0.21234-0.90247-0.15926-0.47778-0.37161-1.0086-0.84938-1.8049-2.442-2.8667-1.5395-1.0617-3.663-1.0617t-3.716 1.0617q-1.5395 1.0617-2.3889 2.8667-0.26543 0.53086-0.42469 1.0086-0.10617 0.42469-0.21235 0.90247-0.0531 0.47778-0.10617 1.0617 0 0.58395-0.0531 1.3802z"></path><path d="m193.88 75.505v-16.085q0-3.5037-1.7518-5.2025-1.6988-1.7518-4.6716-1.7518-2.9728 0-4.7247 1.7518-1.7518 1.7518-1.7518 5.2025v16.085h-3.8222v-26.118h3.8222v2.8667q1.3802-1.5926 3.2383-2.3889 1.858-0.7963 4.0876-0.7963 4.2469 0 6.6889 2.442 2.7074 2.6543 2.7074 7.2728v16.722z"></path><g fill="#f67909"><path d="m227.78 62.445q0 3.1852-0.63703 6.158-0.58395 2.9197-2.5482 4.937-1.0617 1.0617-2.7074 1.6988-1.6457 0.58395-3.663 0.58395-2.2296 0-3.9815-0.69012-1.7518-0.69012-3.3975-2.7605v3.1321h-3.8222v-37.797h3.8222v14.705q1.6457-2.0173 3.3975-2.6543 1.8049-0.69012 3.9815-0.69012 2.0173 0 3.663 0.63704 1.6457 0.58395 2.7074 1.6457 0.95556 0.95556 1.5926 2.2296 0.63704 1.2741 0.95556 2.7074 0.3716 1.4333 0.47777 3.0259 0.15926 1.5395 0.15926 3.1321zm-3.8222 0q0-1.9111-0.21235-3.716-0.21234-1.8049-0.90247-3.1852-0.69012-1.3802-2.0173-2.2296-1.2741-0.84938-3.3975-0.84938-2.1766 0-3.4506 0.84938-1.2741 0.84938-2.0173 2.2296-0.69012 1.3802-0.90247 3.1852-0.21234 1.8049-0.21234 3.716 0 1.9111 0.21234 3.716 0.21235 1.8049 0.90247 3.1852 0.74321 1.3802 2.0173 2.2296 1.2741 0.84938 3.4506 0.84938 2.1234 0 3.3975-0.84938 1.3272-0.84938 2.0173-2.2296 0.69013-1.3802 0.90247-3.1852 0.21235-1.8049 0.21235-3.716z"></path><path d="m252.46 75.505v-2.9197q-1.3802 1.5926-3.2914 2.442-1.858 0.7963-4.0876 0.7963-4.3 0-6.742-2.442-1.3802-1.3802-2.0173-3.1852-0.63703-1.858-0.63703-4.1407v-16.669h3.8222v16.085q0 3.5037 1.6988 5.2555 1.6988 1.6988 4.6716 1.6988 2.9728 0 4.7247-1.7518 1.8049-1.7518 1.8049-5.2025v-16.085h3.8222v26.118z"></path><path d="m285.08 76.301q0 2.442-0.7432 4.4593-0.74321 2.0704-2.1235 3.5568-1.3802 1.4864-3.4506 2.3358-2.0173 0.84938-4.5654 0.84938-1.4864 0-2.6543-0.21234-1.1679-0.15926-2.2296-0.58395-1.0086-0.42469-2.0173-1.1148-0.95556-0.63704-1.9642-1.5926l2.4951-2.442q0.69012 0.63704 1.3272 1.1148 0.69012 0.47778 1.3802 0.7963 0.74321 0.3716 1.5926 0.53086 0.84939 0.15926 1.9642 0.15926 1.9111 0 3.2383-0.63704 1.3802-0.63704 2.2296-1.6988 0.90247-1.0617 1.2741-2.5481 0.42469-1.4333 0.42469-3.1321v-4.0876q-1.5926 2.0173-3.3975 2.7074-1.8049 0.69012-3.9284 0.69012-2.0173 0-3.663-0.63704-1.5926-0.63704-2.6543-1.6988-1.9642-1.9642-2.6012-4.8309-0.58395-2.8667-0.58395-6.0518t0.58395-6.0518q0.63704-2.8667 2.6012-4.8309 1.0617-1.0617 2.7074-1.6457 1.6457-0.63704 3.663-0.63704 2.1765 0 3.9284 0.69012 1.8049 0.63704 3.3975 2.7074v-3.079h3.7691zm-3.8222-14.068q0-1.8049-0.21235-3.5568-0.21234-1.8049-0.90247-3.1321-0.69012-1.3802-1.9642-2.2296-1.2741-0.84938-3.3975-0.84938-2.1234 0-3.4506 0.84938-1.2741 0.84938-1.9642 2.2296-0.69012 1.3272-0.90246 3.1321-0.21235 1.7518-0.21235 3.5568 0 1.858 0.21235 3.6099 0.21234 1.7518 0.90246 3.1321 0.69013 1.3272 1.9642 2.1765 1.3272 0.84938 3.4506 0.84938 2.1235 0 3.3975-0.84938 1.2741-0.84938 1.9642-2.1765 0.69013-1.3802 0.90247-3.1321 0.21235-1.7518 0.21235-3.6099z"></path></g><path d="m315.39 62.445q0 3.1852-0.63704 6.158-0.58395 2.9197-2.5482 4.937-1.0617 1.0617-2.7074 1.6988-1.6457 0.58395-3.663 0.58395-2.2296 0-3.9815-0.69012-1.7518-0.69012-3.3975-2.7605v3.1321h-3.8222v-37.797h3.8222v14.705q1.6457-2.0173 3.3975-2.6543 1.8049-0.69012 3.9815-0.69012 2.0173 0 3.663 0.63704 1.6457 0.58395 2.7074 1.6457 0.95556 0.95556 1.5926 2.2296 0.63703 1.2741 0.95555 2.7074 0.3716 1.4333 0.47778 3.0259 0.15926 1.5395 0.15926 3.1321zm-3.8222 0q0-1.9111-0.21235-3.716-0.21234-1.8049-0.90246-3.1852-0.69013-1.3802-2.0173-2.2296-1.2741-0.84938-3.3975-0.84938-2.1765 0-3.4506 0.84938-1.2741 0.84938-2.0173 2.2296-0.69012 1.3802-0.90246 3.1852-0.21235 1.8049-0.21235 3.716 0 1.9111 0.21235 3.716 0.21234 1.8049 0.90246 3.1852 0.74321 1.3802 2.0173 2.2296 1.2741 0.84938 3.4506 0.84938 2.1234 0 3.3975-0.84938 1.3272-0.84938 2.0173-2.2296 0.69012-1.3802 0.90246-3.1852 0.21235-1.8049 0.21235-3.716z"></path><path d="m343.52 62.445q0 3.0259-0.63704 5.7333-0.58395 2.6543-2.5481 4.6716-1.3802 1.3802-3.2383 2.1765t-4.2469 0.7963q-2.3889 0-4.2469-0.7963-1.858-0.7963-3.2383-2.1765-1.0086-1.0086-1.6457-2.1765-0.58395-1.221-0.95555-2.4951-0.31852-1.3272-0.47778-2.7605-0.10617-1.4333-0.10617-2.9728 0-3.0259 0.58395-5.6802 0.58395-2.7074 2.6012-4.7247 1.3802-1.3802 3.2383-2.1765 1.858-0.7963 4.2469-0.7963 2.3889 0 4.2469 0.7963 1.858 0.7963 3.2383 2.1765 2.0173 2.0173 2.6012 4.7247 0.58395 2.6543 0.58395 5.6802zm-3.8222 0q0-2.2296-0.31852-4.4062-0.31852-2.2296-1.7518-3.663-1.9111-1.9111-4.7778-1.9111-2.8136 0-4.7247 1.9111-1.4333 1.4333-1.8049 3.663-0.31852 2.1765-0.31852 4.4062 0 1.1148 0.0531 2.2296t0.26543 2.1765q0.21235 1.0617 0.63704 2.0173 0.42469 0.90247 1.1679 1.6457 1.9111 1.9111 4.7247 1.9111 2.8667 0 4.7778-1.9111 1.4333-1.4864 1.7518-3.663 0.31852-2.1765 0.31852-4.4062z"></path><path d="m368.17 75.505v-2.9197q-1.3802 1.5926-3.2914 2.442-1.858 0.7963-4.0876 0.7963-4.3 0-6.742-2.442-1.3802-1.3802-2.0173-3.1852-0.63704-1.858-0.63704-4.1407v-16.669h3.8222v16.085q0 3.5037 1.6988 5.2555 1.6988 1.6988 4.6716 1.6988 2.9728 0 4.7247-1.7518 1.8049-1.7518 1.8049-5.2025v-16.085h3.8222v26.118z"></path><path d="m398.25 75.505v-16.085q0-3.5037-1.7518-5.2025-1.6988-1.7518-4.6716-1.7518-2.9728 0-4.7247 1.7518-1.7518 1.7518-1.7518 5.2025v16.085h-3.8222v-26.118h3.8222v2.8667q1.3802-1.5926 3.2383-2.3889 1.858-0.7963 4.0876-0.7963 4.2469 0 6.6889 2.442 2.7074 2.6543 2.7074 7.2728v16.722z"></path><path d="m418.71 75.505q-1.6988 0-2.9728-0.53086-1.221-0.58395-2.0704-1.5395-0.7963-0.95556-1.221-2.2296t-0.42469-2.7074v-16.191h-3.2914v-2.9198h3.2914v-8.016h3.8222v8.016h5.5741v2.9198h-5.5741v16.085q0 1.8049 0.84938 2.8136t2.7074 1.0086h2.0173v3.2914z"></path><path d="m435.49 81.822q-0.74321 2.0704-1.858 3.079-1.0617 1.0086-2.3889 1.3802-1.3272 0.42469-2.7074 0.42469h-1.6457v-3.3975h1.1679q1.9642 0 2.8136-0.74321 0.84938-0.69012 1.4864-2.4951l1.858-5.0963-9.3963-25.588h4.1407l7.1667 20.969 7.1136-20.969h4.1407z"></path></g></svg>